<svg width="495" height="701" viewBox="0 0 495 701" fill="none" xmlns="http://www.w3.org/2000/svg">
<path fill-rule="evenodd" clip-rule="evenodd" d="M3.76344 7.52688C5.84193 7.52688 7.52688 5.84193 7.52688 3.76344C7.52688 1.68495 5.84193 0 3.76344 0C1.68495 0 0 1.68495 0 3.76344C0 5.84193 1.68495 7.52688 3.76344 7.52688Z" transform="translate(193.758 103.495)" stroke="#00B5E6" stroke-width="1.88172"/>
<path fill-rule="evenodd" clip-rule="evenodd" d="M3.76344 7.52688C5.84193 7.52688 7.52688 5.84193 7.52688 3.76344C7.52688 1.68495 5.84193 0 3.76344 0C1.68495 0 0 1.68495 0 3.76344C0 5.84193 1.68495 7.52688 3.76344 7.52688Z" transform="translate(230.392 396.102)" stroke="#00B5E6" stroke-width="1.88172"/>
<path fill-rule="evenodd" clip-rule="evenodd" d="M3.76344 7.52688C5.84193 7.52688 7.52688 5.84193 7.52688 3.76344C7.52688 1.68495 5.84193 0 3.76344 0C1.68495 0 0 1.68495 0 3.76344C0 5.84193 1.68495 7.52688 3.76344 7.52688Z" transform="translate(237.839 216.29)" stroke="#00B5E6" stroke-width="1.88172"/>
<path fill-rule="evenodd" clip-rule="evenodd" d="M3.76344 7.52688C5.84193 7.52688 7.52688 5.84193 7.52688 3.76344C7.52688 1.68495 5.84193 0 3.76344 0C1.68495 0 0 1.68495 0 3.76344C0 5.84193 1.68495 7.52688 3.76344 7.52688Z" transform="translate(337.71 11.2903)" stroke="#00B5E6" stroke-width="1.88172"/>
<path fill-rule="evenodd" clip-rule="evenodd" d="M3.76344 7.52688C5.84193 7.52688 7.52688 5.84193 7.52688 3.76344C7.52688 1.68495 5.84193 0 3.76344 0C1.68495 0 0 1.68495 0 3.76344C0 5.84193 1.68495 7.52688 3.76344 7.52688Z" transform="translate(336.839 616.29)" stroke="#00B5E6" stroke-width="1.88172"/>
<path fill-rule="evenodd" clip-rule="evenodd" d="M3.76344 7.52688C5.84193 7.52688 7.52688 5.84193 7.52688 3.76344C7.52688 1.68495 5.84193 0 3.76344 0C1.68495 0 0 1.68495 0 3.76344C0 5.84193 1.68495 7.52688 3.76344 7.52688Z" transform="translate(132.839 609.29)" stroke="#00B5E6" stroke-width="1.88172"/>
<path fill-rule="evenodd" clip-rule="evenodd" d="M3.76344 7.52688C5.84193 7.52688 7.52688 5.84193 7.52688 3.76344C7.52688 1.68495 5.84193 0 3.76344 0C1.68495 0 0 1.68495 0 3.76344C0 5.84193 1.68495 7.52688 3.76344 7.52688Z" transform="translate(131.661 210.812)" stroke="#00B5E6" stroke-width="1.88172"/>
<path fill-rule="evenodd" clip-rule="evenodd" d="M3.76344 7.52688C5.84193 7.52688 7.52688 5.84193 7.52688 3.76344C7.52688 1.68495 5.84193 0 3.76344 0C1.68495 0 0 1.68495 0 3.76344C0 5.84193 1.68495 7.52688 3.76344 7.52688Z" transform="translate(128.839 410.29)" stroke="#00B5E6" stroke-width="1.88172"/>
<path fill-rule="evenodd" clip-rule="evenodd" d="M3.76344 7.52688C5.84193 7.52688 7.52688 5.84193 7.52688 3.76344C7.52688 1.68495 5.84193 0 3.76344 0C1.68495 0 0 1.68495 0 3.76344C0 5.84193 1.68495 7.52688 3.76344 7.52688Z" transform="translate(187.231 515.651)" stroke="#00B5E6" stroke-width="1.88172"/>
<path fill-rule="evenodd" clip-rule="evenodd" d="M3.76344 7.52688C5.84193 7.52688 7.52688 5.84193 7.52688 3.76344C7.52688 1.68495 5.84193 0 3.76344 0C1.68495 0 0 1.68495 0 3.76344C0 5.84193 1.68495 7.52688 3.76344 7.52688Z" transform="translate(132.839 20.2903)" stroke="#00B5E6" stroke-width="1.88172"/>
<path d="M90.2285 634.14C265.341 634.14 407.298 492.183 407.298 317.07C407.298 141.957 265.341 0 90.2285 0C58.8818 0 28.5976 4.54886 0 13.0225" transform="translate(344.355 1)" stroke="#00B5E6" stroke-width="1.88172"/>
<path d="M59.1427 0C33.5962 29.4203 13.3808 63.594 0 101.018" transform="translate(136.425 110.14)" stroke="#00B5E6" stroke-width="1.88172"/>
<path d="M121.114 584.789C-40.3712 423.304 -40.3712 161.485 121.114 0" transform="translate(13.2161 26.3792)" stroke="#00B5E6" stroke-width="1.88172"/>
<path d="M0 0C2.2371 17.9969 6.68404 35.308 13.0608 51.6534" transform="translate(219.943 345.409)" stroke="#00B5E6" stroke-width="1.88172"/>
<path d="M16.3123 0C9.26575 14.3237 3.75656 29.54 0 45.4337" transform="translate(224.077 223.043)" stroke="#00B5E6" stroke-width="1.88172"/>
<path d="M0 0C41.4025 43.7565 95.138 75.7228 155.643 90.3361" transform="translate(344.13 621.937) rotate(-30)" stroke="#00B5E6" stroke-width="1.88172"/>
<path d="M0 0C12.1309 36.8771 30.8441 70.7663 54.7495 100.277" transform="translate(133.602 416.86)" stroke="#00B5E6" stroke-width="1.88172"/>
<path fill-rule="evenodd" clip-rule="evenodd" d="M118.548 237.097C184.021 237.097 237.097 184.021 237.097 118.548C237.097 53.0759 184.021 0 118.548 0C53.0759 0 0 53.0759 0 118.548C0 184.021 53.0759 237.097 118.548 237.097Z" transform="translate(316.129 199.521)" stroke="#00B5E6" stroke-width="1.88172"/>
<g opacity="0.8">
<path d="M19.7783 0L116.643 0.0470299V0.98789H134.543V85.6653H0.94086V0.94086H19.7783V0Z" transform="translate(229.57 66.8602)" stroke="white" stroke-width="1.88172"/>
<path d="M0 106.317V7.52689C0 3.3699 3.3699 0 7.52688 0H28.2258" transform="translate(222.043 58.3925)" stroke="white" stroke-width="1.88172"/>
<path d="M0 106.317V7.52689C0 3.3699 3.3699 0 7.52688 0H28.2258" transform="translate(373.521 58.3925) scale(-1 1)" stroke="white" stroke-width="1.88172"/>
<path d="M97.8495 85.6183H0.94086V0.94086H97.8495V85.6183Z" transform="translate(248.387 28.285)" stroke="white" stroke-width="1.88172"/>
<path d="M0 0.94086H97.8495" transform="translate(248.387 38.6345)" stroke="white" stroke-width="1.88172"/>
<mask id="path-24-inside-1" fill="white">
<path fill-rule="evenodd" clip-rule="evenodd" d="M75.2842 0H0V8.46777C0 13.6639 4.2124 17.8763 9.40863 17.8763H179.704C184.901 17.8763 189.113 13.6639 189.113 8.46777V0H114.769C114.527 3.67773 111.468 6.58594 107.728 6.58594H82.3253C78.5862 6.58594 75.5264 3.67773 75.2842 0Z"/>
</mask>
<path d="M0 0V-1.88172H-1.88172V0H0ZM75.2842 0L77.1619 -0.123617L77.0462 -1.88172H75.2842V0ZM189.113 0H190.995V-1.88172H189.113V0ZM114.769 0V-1.88172H113.008L112.892 -0.123586L114.769 0ZM0 1.88172H75.2842V-1.88172H0V1.88172ZM1.88172 8.46777V0H-1.88172V8.46777H1.88172ZM9.40863 15.9946C5.25164 15.9946 1.88172 12.6247 1.88172 8.46777H-1.88172C-1.88172 14.7032 3.17316 19.7581 9.40863 19.7581V15.9946ZM179.704 15.9946H9.40863V19.7581H179.704V15.9946ZM187.231 8.46777C187.231 12.6247 183.861 15.9946 179.704 15.9946V19.7581C185.94 19.7581 190.995 14.7032 190.995 8.46777H187.231ZM187.231 0V8.46777H190.995V0H187.231ZM114.769 1.88172H189.113V-1.88172H114.769V1.88172ZM112.892 -0.123586C112.714 2.57158 110.47 4.70422 107.728 4.70422V8.46766C112.465 8.46766 116.34 4.78389 116.647 0.123586L112.892 -0.123586ZM107.728 4.70422H82.3253V8.46766H107.728V4.70422ZM82.3253 4.70422C79.584 4.70422 77.3393 2.57159 77.1619 -0.123617L73.4066 0.123617C73.7134 4.78388 77.5883 8.46766 82.3253 8.46766V4.70422Z" transform="translate(201.344 162.828)" fill="white" mask="url(#path-24-inside-1)"/>
</g>
<path d="M0.94086 0V18.8172" transform="translate(296.371 76.2688)" stroke="white" stroke-width="1.88172"/>
<path d="M0.94086 0V31.9892" transform="translate(286.962 84.7365)" stroke="white" stroke-width="1.88172"/>
<path d="M0.94086 0V31.9892" transform="translate(305.78 84.7365)" stroke="white" stroke-width="1.88172"/>
<path d="M10.8301 0V20.6989L0 31.529" transform="translate(286.962 100.731)" stroke="white" stroke-width="1.88172"/>
<path d="M10.3495 0V11.2903L0 22.1204" transform="translate(268.145 94.1451)" stroke="white" stroke-width="1.88172"/>
<path d="M10.8301 0V11.2903L0 22.1204" transform="translate(327.9 94.1451) scale(-1 1)" stroke="white" stroke-width="1.88172"/>
<path fill-rule="evenodd" clip-rule="evenodd" d="M5.64516 11.2903C8.7629 11.2903 11.2903 8.7629 11.2903 5.64516C11.2903 2.52742 8.7629 0 5.64516 0C2.52742 0 0 2.52742 0 5.64516C0 8.7629 2.52742 11.2903 5.64516 11.2903Z" transform="translate(258.737 113.903)" stroke="white" stroke-width="1.88172"/>
<path fill-rule="evenodd" clip-rule="evenodd" d="M5.64516 11.2903C8.7629 11.2903 11.2903 8.7629 11.2903 5.64516C11.2903 2.52742 8.7629 0 5.64516 0C2.52742 0 0 2.52742 0 5.64516C0 8.7629 2.52742 11.2903 5.64516 11.2903Z" transform="translate(326.479 113.903)" stroke="white" stroke-width="1.88172"/>
<path fill-rule="evenodd" clip-rule="evenodd" d="M5.64516 11.2903C8.7629 11.2903 11.2903 8.7629 11.2903 5.64516C11.2903 2.52742 8.7629 0 5.64516 0C2.52742 0 0 2.52742 0 5.64516C0 8.7629 2.52742 11.2903 5.64516 11.2903Z" transform="translate(305.78 130.839)" stroke="white" stroke-width="1.88172"/>
<path fill-rule="evenodd" clip-rule="evenodd" d="M5.64516 11.2903C8.7629 11.2903 11.2903 8.7629 11.2903 5.64516C11.2903 2.52742 8.7629 0 5.64516 0C2.52742 0 0 2.52742 0 5.64516C0 8.7629 2.52742 11.2903 5.64516 11.2903Z" transform="translate(277.554 130.839)" stroke="white" stroke-width="1.88172"/>
<path d="M10.8301 0V20.6989L0 31.529" transform="translate(308.142 100.731) scale(-1 1)" stroke="white" stroke-width="1.88172"/>
<path d="M12.7554 14.7823C12.4292 15.8486 11.8396 16.6828 10.9866 17.2849C10.1335 17.8871 9.14876 18.1882 8.03227 18.1882C6.67743 18.1882 5.55467 17.8244 4.66399 17.0968C3.78585 16.3566 3.18998 15.3217 2.87636 13.9919H1.20162V12.7124H2.66937C2.64428 12.3109 2.63173 12.0036 2.63173 11.7903C2.63173 11.5394 2.638 11.3513 2.65055 11.2258H1.20162V9.92742H2.80109C3.07707 8.49731 3.66668 7.3871 4.5699 6.59677C5.47313 5.79391 6.61471 5.39247 7.99464 5.39247C9.11112 5.39247 10.0708 5.64964 10.8737 6.16398C11.6891 6.66577 12.2599 7.38083 12.586 8.30914L10.9113 9.08065C10.7357 8.41577 10.397 7.90143 9.89517 7.53763C9.39338 7.17384 8.81005 6.99194 8.14517 6.99194C7.30467 6.99194 6.58962 7.2491 6.00001 7.76344C5.42295 8.26523 5.01524 8.98656 4.77689 9.92742H9.23657L8.82259 11.2258H4.58872C4.57618 11.3513 4.5699 11.5394 4.5699 11.7903C4.5699 12.0036 4.58245 12.3109 4.60754 12.7124H8.48388L8.08872 13.9919H4.85216C5.10306 14.8324 5.49822 15.4785 6.03765 15.9301C6.58962 16.3692 7.26704 16.5887 8.0699 16.5887C8.75987 16.5887 9.38084 16.3817 9.93281 15.9677C10.4848 15.5538 10.8611 14.9704 11.0618 14.2177L12.7554 14.7823ZM25.3581 5.58065V18H23.3823V8.8172C23.3823 8.39068 23.3885 8.05824 23.4011 7.81989C22.9745 8.23387 22.4853 8.5914 21.9333 8.89247C21.3939 9.19355 20.8419 9.40681 20.2774 9.53226L19.9011 7.78226C20.2272 7.74462 20.6475 7.60663 21.1618 7.36828C21.6887 7.12993 22.1842 6.84767 22.6484 6.52151C23.1125 6.19534 23.4513 5.88172 23.6645 5.58065H25.3581ZM33.0349 18.1882C31.4668 18.1882 30.275 17.6487 29.4596 16.5699C28.6568 15.4785 28.2553 13.8853 28.2553 11.7903C28.2553 9.69534 28.6568 8.10842 29.4596 7.02957C30.275 5.93817 31.4668 5.39247 33.0349 5.39247C34.603 5.39247 35.7947 5.93817 36.6102 7.02957C37.4256 8.10842 37.8333 9.69534 37.8333 11.7903C37.8333 13.8853 37.4256 15.4785 36.6102 16.5699C35.7947 17.6487 34.603 18.1882 33.0349 18.1882ZM33.0349 16.4758C33.9381 16.4758 34.6218 16.0869 35.086 15.3091C35.5501 14.5188 35.7822 13.3459 35.7822 11.7903C35.7822 10.2348 35.5501 9.0681 35.086 8.29032C34.6218 7.5 33.9381 7.10484 33.0349 7.10484C31.2159 7.10484 30.3064 8.66667 30.3064 11.7903C30.3064 14.914 31.2159 16.4758 33.0349 16.4758ZM44.8508 18.1882C43.2827 18.1882 42.0909 17.6487 41.2755 16.5699C40.4726 15.4785 40.0712 13.8853 40.0712 11.7903C40.0712 9.69534 40.4726 8.10842 41.2755 7.02957C42.0909 5.93817 43.2827 5.39247 44.8508 5.39247C46.4189 5.39247 47.6106 5.93817 48.426 7.02957C49.2415 8.10842 49.6492 9.69534 49.6492 11.7903C49.6492 13.8853 49.2415 15.4785 48.426 16.5699C47.6106 17.6487 46.4189 18.1882 44.8508 18.1882ZM44.8508 16.4758C45.754 16.4758 46.4377 16.0869 46.9019 15.3091C47.366 14.5188 47.5981 13.3459 47.5981 11.7903C47.5981 10.2348 47.366 9.0681 46.9019 8.29032C46.4377 7.5 45.754 7.10484 44.8508 7.10484C43.0318 7.10484 42.1223 8.66667 42.1223 11.7903C42.1223 14.914 43.0318 16.4758 44.8508 16.4758Z" transform="translate(273 49)" fill="white"/>
<path d="M6.58091 5.15242C7.97464 5.15242 9.08548 5.4836 9.91343 6.14597C10.7414 6.80833 11.1554 7.69839 11.1554 8.81613C11.1554 9.51989 10.976 10.134 10.6172 10.6583C10.2722 11.1827 9.78234 11.5829 9.14757 11.8589V11.8796C9.96173 12.1832 10.5896 12.6247 11.0312 13.2043C11.4866 13.7839 11.7142 14.4945 11.7142 15.3363C11.7142 16.523 11.252 17.4683 10.3274 18.172C9.40286 18.862 8.15403 19.207 6.58091 19.207C5.00779 19.207 3.75205 18.862 2.8137 18.172C1.88915 17.4683 1.42688 16.523 1.42688 15.3363C1.42688 14.5083 1.65456 13.7977 2.10994 13.2043C2.56532 12.6109 3.20008 12.1694 4.01424 11.8796V11.8589C3.37947 11.5967 2.8827 11.2034 2.52392 10.679C2.16514 10.1409 1.98575 9.51989 1.98575 8.81613C1.98575 7.68459 2.39972 6.79453 3.22768 6.14597C4.05564 5.4836 5.17338 5.15242 6.58091 5.15242ZM6.58091 7.01532C5.84955 7.01532 5.26998 7.19471 4.8422 7.5535C4.41442 7.89848 4.20053 8.38835 4.20053 9.02312C4.20053 9.64409 4.41442 10.134 4.8422 10.4927C5.26998 10.8377 5.84955 11.0102 6.58091 11.0102C7.29847 11.0102 7.87114 10.8377 8.29892 10.4927C8.7405 10.134 8.96128 9.64409 8.96128 9.02312C8.96128 8.40215 8.7474 7.91228 8.31962 7.5535C7.89184 7.19471 7.31227 7.01532 6.58091 7.01532ZM6.58091 17.3441C7.47786 17.3441 8.18162 17.144 8.6922 16.7438C9.21657 16.3436 9.47876 15.7917 9.47876 15.0879C9.47876 14.3841 9.21657 13.8322 8.6922 13.432C8.16783 13.018 7.46406 12.811 6.58091 12.811C5.69775 12.811 4.98709 13.018 4.44892 13.432C3.92455 13.8322 3.66236 14.3841 3.66236 15.0879C3.66236 15.7917 3.92455 16.3436 4.44892 16.7438C4.97329 17.144 5.68395 17.3441 6.58091 17.3441ZM19.1274 5.13172C20.8523 5.13172 22.1839 5.76649 23.1223 7.03602C24.0606 8.29176 24.5298 10.0098 24.5298 12.1901C24.5298 14.5083 24.0606 16.2608 23.1223 17.4476C22.1977 18.6205 20.8592 19.207 19.1067 19.207C17.8647 19.207 16.8505 18.9517 16.0639 18.4411C15.2912 17.9306 14.6978 17.1647 14.2838 16.1435L16.3744 15.1707C16.5952 15.8883 16.8988 16.4264 17.2852 16.7852C17.6715 17.1302 18.2787 17.3027 19.1067 17.3027C20.321 17.3027 21.1904 16.8473 21.7147 15.9366C22.2391 15.012 22.5013 13.6735 22.5013 11.921V11.6933H22.4185C22.2253 12.4936 21.7837 13.087 21.0938 13.4734C20.4176 13.846 19.6448 14.0323 18.7755 14.0323C17.8923 14.0323 17.1058 13.8529 16.4158 13.4941C15.7396 13.1353 15.2084 12.6247 14.822 11.9624C14.4356 11.2862 14.2424 10.5065 14.2424 9.62339C14.2424 8.22966 14.6771 7.13262 15.5465 6.33226C16.4296 5.5319 17.6232 5.13172 19.1274 5.13172ZM19.1274 7.07742C18.2856 7.07742 17.6301 7.30511 17.161 7.76048C16.6918 8.20206 16.4572 8.82993 16.4572 9.64409C16.4572 10.4306 16.6918 11.0447 17.161 11.4863C17.6301 11.9279 18.2856 12.1487 19.1274 12.1487C19.9277 12.1487 20.5694 11.921 21.0524 11.4656C21.5491 10.9964 21.7975 10.3892 21.7975 9.64409C21.7975 8.87133 21.5491 8.25036 21.0524 7.78118C20.5694 7.31201 19.9277 7.07742 19.1274 7.07742Z" transform="translate(280.548 530.763)" fill="white"/>
<g opacity="0.8">
<path d="M27.6693 0C13.8336 8.95534 3.68307 23.1384 0 39.761" transform="translate(26.8817 306.348) rotate(-33)" stroke="white" stroke-width="1.88172"/>
<path d="M26.435 0C12.9228 9.34366 3.18953 23.7836 0 40.549" transform="translate(158.259 250.397) rotate(87)" stroke="white" stroke-width="1.88172"/>
<path d="M28.4261 0C13.9033 9.24912 3.37138 24.2294 0 41.7644" transform="translate(141.007 393.2) rotate(-154)" stroke="white" stroke-width="1.88172"/>
</g>
<path opacity="0.8" fill-rule="evenodd" clip-rule="evenodd" d="M30.1075 60.2151C46.7355 60.2151 60.2151 46.7355 60.2151 30.1075C60.2151 13.4796 46.7355 0 30.1075 0C13.4796 0 0 13.4796 0 30.1075C0 46.7355 13.4796 60.2151 30.1075 60.2151Z" transform="translate(42.5627 261.248) rotate(-30)" stroke="white" stroke-width="1.88172"/>
<path opacity="0.8" fill-rule="evenodd" clip-rule="evenodd" d="M30.1075 60.2151C46.7355 60.2151 60.2151 46.7355 60.2151 30.1075C60.2151 13.4796 46.7355 0 30.1075 0C13.4796 0 0 13.4796 0 30.1075C0 46.7355 13.4796 60.2151 30.1075 60.2151Z" transform="translate(120.938 302.911) rotate(-30)" stroke="white" stroke-width="1.88172"/>
<path opacity="0.8" fill-rule="evenodd" clip-rule="evenodd" d="M30.1075 60.2151C46.7355 60.2151 60.2151 46.7355 60.2151 30.1075C60.2151 13.4796 46.7355 0 30.1075 0C13.4796 0 0 13.4796 0 30.1075C0 46.7355 13.4796 60.2151 30.1075 60.2151Z" transform="translate(37.8271 350.895) rotate(-30)" stroke="white" stroke-width="1.88172"/>
<path d="M1.50148 11.752V12.6929L0.11193 1.0213L12.5215 0.94114C15.5204 0.921768 17.9619 3.3475 17.9619 6.34651C17.9619 9.33188 15.5418 11.752 12.5564 11.752H1.50148Z" transform="translate(75.7777 259.767)" stroke="white" stroke-width="1.88172"/>
<path d="M0.929524 0.94086H11.7823C14.8881 0.94086 17.4059 3.45865 17.4059 6.56451C17.4059 9.64882 14.9216 12.1576 11.8375 12.1879L0.0660776 12.3034L0.929524 0V0.94086Z" transform="translate(76.3337 270.925)" stroke="white" stroke-width="1.88172"/>
<path d="M0.764449 0V35.6532" transform="translate(75.5692 254.036)" stroke="white" stroke-width="1.88172"/>
<path d="M1.11193 0C1.11193 0 1.11193 2.39604 1.11193 3.5412C1.11193 4.68635 1.11193 7.08239 1.11193 7.08239" transform="translate(86.897 282.607)" stroke="white" stroke-width="1.88172"/>
<path d="M1.11193 0C1.11193 0 1.11193 2.05375 1.11193 3.03531C1.11193 4.01687 1.11193 6.07062 1.11193 6.07062" transform="translate(86.897 254.036)" stroke="white" stroke-width="1.88172"/>
<path d="M6.67155 1.65562H0" transform="translate(70.2181 259.003)" stroke="white" stroke-width="1.88172"/>
<path d="M6.67155 1.65562H0" transform="translate(70.2181 281.411)" stroke="white" stroke-width="1.88172"/>
<path d="M12.9763 8.75072L13.9242 8.75569L23.9307 2.99076L13.4638 17.5637L3.26689 3.02051L12.9763 8.75072Z" transform="translate(149.645 316.452)" stroke="white" stroke-width="1.88172" stroke-linejoin="bevel"/>
<path d="M25.6122 22.4814L13.4545 29.3575L1.29687 22.4814L13.4545 1.85302L25.6122 22.4814Z" transform="translate(149.645 290.645)" stroke="white" stroke-width="1.88172"/>
<path d="M0.328159 0V27.4786" transform="translate(162.935 292.63)" stroke="white" stroke-width="1.88172"/>
<path d="M0 6.45161L11.3215 0L23.6274 6.45161" transform="translate(151.614 306.526)" stroke="white" stroke-width="1.88172"/>
<path fill-rule="evenodd" clip-rule="evenodd" d="M25.2824 20.5471C24.5686 22.8804 23.2784 24.7059 21.4118 26.0235C19.5451 27.3412 17.3902 28 14.9471 28C11.9823 28 9.53236 27.1971 7.59706 25.5912C5.66176 23.9853 4.35098 21.7275 3.66471 18.8176H0V16.0176H3.21176C3.15686 15.1392 3.12941 14.4667 3.12941 14C3.12941 13.451 3.14314 13.0392 3.17059 12.7647H0V9.92353H3.5C4.10392 6.7941 5.39411 4.35785 7.37059 2.61471C9.34707 0.87156 11.8451 0 14.8647 0C17.3079 0 19.4147 0.555877 21.1853 1.66765C22.9559 2.77942 24.198 4.35097 24.9118 6.38235L21.2471 8.07059C20.8627 6.61568 20.1216 5.4902 19.0235 4.69412C17.9255 3.89804 16.649 3.5 15.1941 3.5C13.3549 3.5 11.7971 4.05588 10.5206 5.16765C9.24411 6.27942 8.3451 7.8647 7.82353 9.92353H17.5824L16.6765 12.7647H7.41176C7.38431 13.0392 7.37059 13.451 7.37059 14C7.37059 14.4667 7.39804 15.1392 7.45294 16.0176H15.9353L15.0706 18.8176H7.98824C8.53726 20.6569 9.40882 22.0637 10.6029 23.0382C11.7971 24.0127 13.2725 24.5 15.0294 24.5C16.5392 24.5 17.898 24.0471 19.1059 23.1412C20.3137 22.2353 21.1373 20.9588 21.5765 19.3118L25.2824 20.5471Z" transform="translate(65 348)" fill="white"/>
<g opacity="0.8">
<path d="M0 0V6.55872C0 10.7263 3.38654 14.1006 7.55414 14.0855L122.335 13.6698C126.503 13.6547 129.89 17.029 129.89 21.1967V27.4073" transform="translate(230.511 481.78)" stroke="white" stroke-width="1.88172"/>
<path d="M85.0967 1.22777L121.702 0.941185C127.449 0.896189 132.132 5.54281 132.132 11.2903V111.308C132.132 114.946 129.184 117.894 125.546 117.894H7.52688C3.88952 117.894 0.94086 114.946 0.94086 111.308V84.1115H0L85.0894 0.286936L85.0967 1.22777Z" transform="translate(361.702 475.847) scale(-1 1)" stroke="white" stroke-width="1.88172"/>
<path d="M0 0L34.3134 0C40.5489 0 45.6037 5.05485 45.6037 11.2903V50.3293" transform="translate(315.351 477.255)" stroke="white" stroke-width="1.88172"/>
<path d="M0.94086 17.2029C0.94086 8.2216 8.2216 0.94086 17.2029 0.94086H27.3114C28.5664 0.94086 29.5837 1.95818 29.5837 3.21311V31.1926C29.5837 32.4475 28.5664 33.4648 27.3114 33.4648H17.2029C8.2216 33.4648 0.94086 26.1841 0.94086 17.2029Z" transform="translate(337.352 527.222)" stroke="white" stroke-width="1.88172"/>
<path fill-rule="evenodd" clip-rule="evenodd" d="M6.35462 12.7152C9.86418 12.7152 12.7092 9.86877 12.7092 6.35758C12.7092 2.84638 9.86418 0 6.35462 0C2.84506 0 0 2.84638 0 6.35758C0 9.86877 2.84506 12.7152 6.35462 12.7152Z" transform="translate(347.238 537.5)" stroke="white" stroke-width="1.88172"/>
<path fill-rule="evenodd" clip-rule="evenodd" d="M31.3993 62.8278C48.7407 62.8278 62.7986 48.7633 62.7986 31.4139C62.7986 14.0645 48.7407 0 31.3993 0C14.0579 0 0 14.0645 0 31.4139C0 48.7633 14.0579 62.8278 31.3993 62.8278Z" transform="translate(263.629 422.812)" stroke="white" stroke-width="1.88172"/>
<path d="M2.24281 17.9705V0" transform="translate(274.98 400.216)" stroke="white" stroke-width="1.88172"/>
<path d="M2.24281 17.9705V0" transform="translate(313.108 400.216)" stroke="white" stroke-width="1.88172"/>
<path d="M0.747602 26.7914C0.747602 26.7914 0.747602 15.7164 0.747602 0.236745" transform="translate(295.166 386.21)" stroke="white" stroke-width="1.88172"/>
</g>
<path fill-rule="evenodd" clip-rule="evenodd" d="M13.8761 4.30652V7.13293L13.8776 7.13379C19.1216 7.37585 23.0637 8.41553 23.0637 9.66077C23.0637 10.906 19.1216 11.9457 13.8776 12.1877V21.2419H9.20361V12.1885C3.95203 11.9457 0 10.9053 0 9.65881C0 8.41248 3.95007 7.37195 9.20361 7.13074V4.30652H2.73944V0H20.3395V4.30652H13.8761ZM11.5596 11.4677C13.0682 11.4677 13.7457 11.427 13.8776 11.4187V11.4209L13.8784 11.4191C18.509 11.2126 21.967 10.4033 21.967 9.43958C21.967 8.47595 18.5106 7.66687 13.8784 7.46057V10.6165C13.7454 10.6287 13.0207 10.6887 11.5793 10.6887C10.3793 10.6887 9.50989 10.6373 9.20587 10.6165V7.46057C4.56494 7.6665 1.1001 8.47363 1.1001 9.4408C1.1001 10.4078 4.56458 11.2161 9.20587 11.4216V11.4178C9.50494 11.4335 10.3535 11.4677 11.5596 11.4677Z" transform="translate(284 444)" fill="white"/>
</svg>
