<svg xmlns="http://www.w3.org/2000/svg" xmlns:xlink="http://www.w3.org/1999/xlink" width="162" height="162" viewBox="0 0 162 162">
    <defs>
        <linearGradient id="c" x1="124.833%" x2="-10.307%" y1="-20.636%" y2="97.509%">
            <stop offset="0%" stop-color="#14236B"/>
            <stop offset="100%" stop-color="#142C9C"/>
        </linearGradient>
        <circle id="b" cx="57" cy="57" r="57"/>
        <filter id="a" width="173.7%" height="173.7%" x="-36.8%" y="-26.3%" filterUnits="objectBoundingBox">
            <feOffset dy="12" in="SourceAlpha" result="shadowOffsetOuter1"/>
            <feGaussianBlur in="shadowOffsetOuter1" result="shadowBlurOuter1" stdDeviation="12"/>
            <feColorMatrix in="shadowBlurOuter1" values="0 0 0 0 0.164324105 0 0 0 0 0.168050168 0 0 0 0 0.93189307 0 0 0 0.158882473 0"/>
        </filter>
    </defs>
    <g fill="none" fill-rule="evenodd">
        <g transform="translate(24 12)">
            <use fill="#000" filter="url(#a)" xlink:href="#b"/>
            <use fill="url(#c)" xlink:href="#b"/>
        </g>
        <g fill="#FFF" fill-rule="nonzero">
            <path d="M95.715 99.077v-.012c.155.007.31.012.467.012 5.414 0 9.818-4.421 9.818-9.856V41.798c0-.985-.5-1.878-1.339-2.389a2.754 2.754 0 0 0-2.73-.09L96.794 42l-4.198-2.232a5.854 5.854 0 0 0-5.503 0l-4.188 2.226-4.188-2.226a5.853 5.853 0 0 0-5.503 0l-4.198 2.232-5.14-2.683a2.754 2.754 0 0 0-2.728.09 2.777 2.777 0 0 0-1.34 2.39v37.197h-6.53A2.282 2.282 0 0 0 51 81.282v7.939c0 5.322 4.225 9.67 9.484 9.847v.009h35.231zm-31.352-54.35l3.376 1.762c.812.423 1.779.42 2.586-.01l5.02-2.668a1.317 1.317 0 0 1 1.239 0l5.018 2.667c.815.433 1.789.434 2.605 0l5.017-2.667c.388-.206.85-.206 1.239 0l5.019 2.668c.808.43 1.775.434 2.587.01l3.375-1.762v44.494c0 2.913-2.36 5.282-5.262 5.282-2.902 0-5.262-2.37-5.262-5.282v-7.94a2.282 2.282 0 0 0-2.278-2.286H64.363V44.727zm-8.807 44.494v-5.653h30.809v5.653c0 1.943.565 3.754 1.535 5.282H60.818c-2.902 0-5.262-2.37-5.262-5.282z"/>
            <path d="M95.846 72.846c0-1.402-1.004-2.538-2.242-2.538H71.011c-1.238 0-2.242 1.136-2.242 2.538s1.004 2.539 2.242 2.539h22.593c1.238 0 2.242-1.137 2.242-2.539zM71.011 66.077h22.593c1.238 0 2.242-1.137 2.242-2.539 0-1.401-1.004-2.538-2.242-2.538H71.011c-1.238 0-2.242 1.137-2.242 2.538 0 1.402 1.004 2.539 2.242 2.539zM71.098 57.615H84.21c1.286 0 2.328-1.136 2.328-2.538s-1.042-2.539-2.328-2.539H71.098c-1.286 0-2.329 1.137-2.329 2.539 0 1.402 1.043 2.538 2.329 2.538z"/>
        </g>
    </g>
</svg>
