<svg width="12" height="12" viewBox="0 0 12 12" fill="none" xmlns="http://www.w3.org/2000/svg">
<path id="Shape" opacity="0.6" fill-rule="evenodd" clip-rule="evenodd" d="M1.75726 1.7572C-0.585754 4.10022 -0.585754 7.89978 1.75726 10.2428C4.10028 12.5857 7.89972 12.5857 10.2427 10.2428C12.5858 7.89978 12.5858 4.10022 10.2427 1.7572C7.89972 -0.585693 4.10028 -0.585693 1.75726 1.7572ZM6.00592 2.57141C6.47882 2.57141 6.85718 2.95886 6.85718 3.42859C6.85718 3.89819 6.46704 4.28564 6.00592 4.28564C5.53302 4.28564 5.14288 3.89819 5.14288 3.41687C5.14288 2.94714 5.53302 2.57141 6.00592 2.57141ZM7.56665 8.93042C7.62244 8.88416 7.67828 8.8031 7.70618 8.73352C7.74805 8.6062 7.62244 8.52502 7.45502 8.57141C7.39819 8.58484 7.34613 8.61011 7.29333 8.63562C7.25525 8.65405 7.2168 8.67273 7.1759 8.68726C7.05035 8.73352 6.92474 8.76831 6.79913 8.77991C6.64569 8.7915 6.53406 8.72192 6.49219 8.5946C6.46429 8.50195 6.45032 8.39771 6.46429 8.30493C6.48291 8.17358 6.51392 8.04224 6.54492 7.91089C6.56042 7.84534 6.57593 7.77979 6.58984 7.71423C6.65259 7.41333 6.71881 7.11536 6.78503 6.81726C6.85138 6.5188 6.91772 6.22034 6.98059 5.91882C7.0224 5.75671 7.05035 5.5946 7.05035 5.43237C7.05035 5.23547 6.91077 5.14282 6.67358 5.14282H5.68286H4.74792C4.66425 5.14282 4.58051 5.14282 4.51074 5.15442C4.37122 5.17761 4.30139 5.23547 4.28748 5.32812C4.2735 5.40918 4.34326 5.50195 4.46887 5.53662C4.58051 5.55981 4.69214 5.57141 4.80377 5.58301C5.06891 5.6062 5.15259 5.68726 5.15259 5.90735C5.15259 5.92468 5.14911 5.94202 5.14563 5.95935C5.14215 5.97681 5.13867 5.99414 5.13867 6.0116C5.08289 6.27222 5.02704 6.53564 4.97119 6.79919C4.91541 7.06274 4.85962 7.32617 4.80377 7.58679L4.63629 8.49036C4.56653 8.93042 5.08282 9.34741 5.48749 9.3938C5.73865 9.42859 5.97589 9.42859 6.22705 9.42859C6.75732 9.42859 7.2038 9.24316 7.56665 8.93042Z" fill="white"/>
</svg>
