<svg width="53" height="55" viewBox="0 0 53 55" fill="none" xmlns="http://www.w3.org/2000/svg">
<path fill-rule="evenodd" clip-rule="evenodd" d="M23.5935 47.2222C36.6238 47.2222 47.1869 36.6512 47.1869 23.6111C47.1869 10.5711 36.6238 0 23.5935 0C10.5632 0 0 10.5711 0 23.6111C0 36.6512 10.5632 47.2222 23.5935 47.2222Z" transform="translate(1.42993 5.92593)" stroke="white" stroke-width="2"/>
<path d="M26.8318 6.33807C23.6428 2.46747 18.8144 0 13.4101 0C8.01236 0 3.18907 2.46155 0 6.32415" transform="translate(11.442 36.2238)" stroke="white" stroke-width="2"/>
<path fill-rule="evenodd" clip-rule="evenodd" d="M8.78972 17.5926C13.6441 17.5926 17.5794 13.6544 17.5794 8.7963C17.5794 3.93824 13.6441 0 8.78972 0C3.93529 0 0 3.93824 0 8.7963C0 13.6544 3.93529 17.5926 8.78972 17.5926Z" transform="translate(16.2336 14.2592)" stroke="white" stroke-width="2"/>
<path fill-rule="evenodd" clip-rule="evenodd" d="M10.5 21C16.299 21 21 16.299 21 10.5C21 4.70101 16.299 0 10.5 0C4.70101 0 0 4.70101 0 10.5C0 16.299 4.70101 21 10.5 21Z" transform="translate(31 1)" stroke="white" stroke-width="2"/>
<path d="M0 3.01783L2.98809 6L9 0" transform="translate(37 9)" stroke="white" stroke-width="2"/>
</svg>
