<svg fill="#ffffff" width="231" height="36" viewBox="0 0 231 36" xmlns="http://www.w3.org/2000/svg">
<path d="M7.89749 9.67432C8.11206 9.22656 8.25452 8.73657 8.32605 8.20435H6.80112C6.7518 8.55225 6.66608 8.87622 6.54523 9.17651C6.42438 9.47168 6.26221 9.72974 6.05933 9.95117C5.85583 10.1672 5.60562 10.3357 5.30908 10.457C5.01761 10.5781 4.67136 10.6387 4.27032 10.6387C3.90207 10.6387 3.58051 10.5835 3.3056 10.4727C3.03101 10.3569 2.79196 10.2014 2.58841 10.0063C2.38522 9.80615 2.2175 9.5769 2.0856 9.31885C1.9537 9.06055 1.84656 8.78662 1.76404 8.49683C1.68155 8.20166 1.62137 7.90405 1.58282 7.60376C1.54971 7.2981 1.53342 7.00293 1.53342 6.71826V5.09814C1.53342 4.81348 1.54971 4.521 1.58282 4.2207C1.62137 3.91504 1.68155 3.61743 1.76404 3.32764C1.84656 3.03784 1.9537 2.76392 2.0856 2.50562C2.22293 2.24731 2.39059 2.02075 2.58841 1.82568C2.79196 1.63086 3.03101 1.47803 3.3056 1.36719C3.58591 1.25146 3.9075 1.1936 4.27032 1.1936C4.67136 1.1936 5.01761 1.25928 5.30908 1.39111C5.60562 1.51758 5.85583 1.69409 6.05933 1.92065C6.26221 2.14722 6.42438 2.41064 6.54523 2.71094C6.66608 3.01147 6.7518 3.33545 6.80112 3.68335H8.32605C8.26007 3.13525 8.12256 2.63477 7.91351 2.18164C7.71066 1.72827 7.43872 1.34106 7.09772 1.01953C6.75674 0.692871 6.35037 0.442627 5.87781 0.268799C5.40509 0.0895996 4.86917 0 4.27032 0C3.77017 0 3.31949 0.0686035 2.91812 0.205566C2.51706 0.337158 2.15695 0.521729 1.83841 0.758789C1.52496 0.99585 1.25311 1.27783 1.02219 1.60449C0.796997 1.92603 0.6073 2.27637 0.4534 2.65576C0.304993 3.03516 0.192383 3.43286 0.115295 3.84912C0.0439758 4.26562 0.00543213 4.68701 0 5.11377V5.21021H1.53195V6.61426H0V6.71826C0.00543213 7.14502 0.0439758 7.56665 0.115295 7.98315C0.192383 8.39941 0.304993 8.79712 0.4534 9.17651C0.6073 9.55591 0.796997 9.90649 1.02219 10.2278C1.25311 10.5491 1.52496 10.8284 1.83841 11.0657C2.15695 11.3027 2.51706 11.4897 2.91812 11.6267C3.32489 11.7585 3.7756 11.8245 4.27032 11.8245C4.84717 11.8245 5.36926 11.7375 5.83655 11.5635C6.30905 11.3845 6.71603 11.1367 7.0564 10.8206C7.40295 10.499 7.68289 10.1172 7.89749 9.67432ZM20.7177 6.97046L23.1072 6.97119L25.4645 11.6663H27.0721L27.0801 11.5715L24.5334 6.65503C24.8627 6.51807 25.1649 6.35205 25.4398 6.15723C25.7149 5.96216 25.951 5.73828 26.149 5.48535C26.3463 5.23242 26.5005 4.95044 26.6108 4.63965C26.7261 4.32861 26.7835 3.98608 26.7835 3.61206C26.7835 3.03247 26.6768 2.5293 26.4622 2.10229C26.2532 1.67017 25.9621 1.31201 25.5885 1.02734C25.2203 0.74292 24.7887 0.529541 24.2942 0.387207C23.7996 0.245117 23.2718 0.168457 22.7113 0.157959H19.191V6.97046H20.7177ZM19.191 8.37451H20.7079V11.6663H19.191V8.37451ZM22.7526 5.77002H20.7079V1.35962H22.7113C23.0794 1.36475 23.4173 1.41479 23.725 1.50977C24.0382 1.60449 24.3077 1.74683 24.5334 1.93652C24.7585 2.12109 24.9342 2.35278 25.0606 2.63208C25.187 2.90601 25.2505 3.22754 25.2505 3.59644C25.2505 3.94409 25.1845 4.25244 25.0526 4.521C24.9206 4.78467 24.7393 5.00854 24.5081 5.19287C24.2831 5.37744 24.0191 5.51953 23.717 5.61987C23.4148 5.7146 23.0936 5.76465 22.7526 5.77002ZM43.9879 0.157959L41.2514 5.93579L38.5228 0.157959H36.7833L40.5176 7.37427H41.9851L45.7194 0.157959H43.9879ZM40.5422 11.6665L40.5256 8.77832H41.9771L41.9604 11.6665H40.5422ZM57.9606 7.15918L57.9613 11.6663H56.4357V0.157959H57.9606L57.9613 1.35938L57.9606 1.49634V5.75513L57.9613 5.84888V7.05029L57.9606 7.15918ZM60.3267 1.35938H59.493V0.157959H60.3267C60.8656 0.168457 61.3743 0.250244 61.8522 0.403076C62.3356 0.555908 62.7586 0.7771 63.1218 1.06689C63.4844 1.35669 63.7699 1.71509 63.9789 2.14185C64.1935 2.56885 64.3008 3.05884 64.3008 3.61206C64.3008 4.16528 64.1935 4.65527 63.9789 5.08203C63.7699 5.50366 63.4844 5.85938 63.1218 6.14917C62.7586 6.43921 62.3356 6.6604 61.8522 6.81323C61.3743 6.96606 60.8656 7.04517 60.3267 7.05029H59.493V5.84888H60.3267C60.6787 5.84351 61.0031 5.79077 61.2997 5.69092C61.5963 5.58545 61.8546 5.43774 62.0748 5.24805C62.2943 5.05859 62.4651 4.82935 62.586 4.56055C62.7124 4.28662 62.7753 3.97559 62.7753 3.62793C62.7753 3.28003 62.7124 2.96655 62.586 2.68726C62.4651 2.40796 62.2943 2.1709 62.0748 1.97607C61.8602 1.78101 61.6018 1.63086 61.2997 1.52539C61.0031 1.41992 60.6787 1.36475 60.3267 1.35938ZM79.3094 1.40649L82.9722 1.40674V0.157959H74.0694V1.40674H77.779L79.3094 1.40649ZM77.7771 2.81055L77.779 11.6663H79.2626V2.81055H77.7771ZM100.061 6.34692H96.5793V5.10596H100.061V6.34692ZM95.0476 6.46411L95.0494 10.4253H100.894V11.6663H93.5239V0.157959H100.82V1.40674H95.0494L95.0476 5.05981V6.46411ZM113.619 6.97021L116.013 6.97119L118.371 11.6663H119.978L119.986 11.5715L117.439 6.65503C117.769 6.51807 118.071 6.35205 118.346 6.15723C118.621 5.96216 118.857 5.73828 119.055 5.48535C119.253 5.23242 119.407 4.95044 119.516 4.63965C119.632 4.32861 119.69 3.98608 119.69 3.61206C119.69 3.03247 119.582 2.5293 119.368 2.10229C119.159 1.67017 118.868 1.31201 118.494 1.02734C118.126 0.74292 117.695 0.529541 117.2 0.387207C116.705 0.245117 116.178 0.168457 115.617 0.157959H112.097V6.97021H113.619ZM112.097 8.37451H113.614V11.6663H112.097V8.37451ZM115.658 5.77002H113.614V1.35962H115.617C115.986 1.36475 116.324 1.41479 116.631 1.50977C116.945 1.60449 117.214 1.74683 117.439 1.93652C117.664 2.12109 117.84 2.35278 117.966 2.63208C118.093 2.90601 118.156 3.22754 118.156 3.59644C118.156 3.94409 118.09 4.25244 117.958 4.521C117.826 4.78467 117.645 5.00854 117.414 5.19287C117.189 5.37744 116.925 5.51953 116.623 5.61987C116.32 5.7146 115.999 5.76465 115.658 5.77002ZM134.998 0.157959H130.621V1.43042H133.432V10.4016V11.6663H134.998V10.4016V1.43042V0.157959ZM156.753 7.95142L156.737 0.157959H155.261L155.236 7.95142C155.225 8.29395 155.168 8.62305 155.063 8.93945C154.959 9.25537 154.805 9.53735 154.601 9.78516C154.403 10.0273 154.156 10.2224 153.859 10.3699C153.563 10.5122 153.219 10.5835 152.829 10.5835C152.439 10.5835 152.093 10.5098 151.79 10.3621C151.493 10.2144 151.244 10.0195 151.04 9.7771C150.842 9.53467 150.688 9.25537 150.578 8.93945C150.474 8.62305 150.419 8.29395 150.414 7.95142L150.408 6.61426H148.916L148.913 7.95142C148.919 8.48877 149.018 8.99463 149.21 9.46899C149.402 9.93799 149.669 10.3489 150.01 10.7019C150.351 11.0498 150.76 11.3237 151.238 11.5239C151.716 11.7241 152.246 11.8242 152.829 11.8242C153.401 11.8242 153.925 11.7241 154.403 11.5239C154.882 11.3184 155.294 11.0417 155.64 10.6938C155.986 10.3408 156.256 9.92993 156.448 9.46094C156.64 8.99194 156.742 8.48877 156.753 7.95142ZM150.402 5.20996L150.38 0.157959H148.929L148.919 5.20996H150.402ZM169.456 0.157959L171.41 5.91211L173.52 0.157959H175.417V5.20996H173.98L174.056 2.26831L171.839 8.46509H170.965L168.928 2.43433L169.052 7.07397V11.6663H167.569V0.157959H169.456ZM175.417 6.61426H173.945L173.933 7.07422V11.6663H175.417V6.61426Z" transform="translate(54.4922 10.8)" fill="#ffffff"/>
<path d="M1.35358 17.9905C1.35358 27.123 8.73053 34.6077 17.7318 34.6077C22.6046 34.6077 27.2067 32.479 30.3199 28.5649L31.2675 29.5264C27.8835 33.6462 23.0107 35.981 17.7318 35.981C7.91837 35.981 0 27.8784 0 17.9905C0 8.03394 7.98602 0 17.7318 0C22.943 0 27.8835 2.33472 31.2675 6.45459L30.3199 7.41602C27.2067 3.57056 22.6046 1.37329 17.7318 1.37329C8.73053 1.37329 1.35358 8.85791 1.35358 17.9905ZM26.0562 7.75928L27.0037 6.7981C24.3643 4.60083 21.1157 3.36475 17.7318 3.36475C10.0841 3.36475 3.79001 9.33862 3.31625 17.0979H4.66983C5.14359 10.1626 10.8286 4.73804 17.7318 4.73804C20.7773 4.73804 23.6874 5.76807 26.0562 7.75928ZM25.5825 12.2913C23.7551 9.75073 20.845 8.23999 17.7318 8.23999C12.3852 8.23999 8.05377 12.6345 8.05377 17.9905C8.05377 23.4153 12.3852 27.8098 17.7318 27.8098C20.845 27.8098 23.7551 26.2991 25.5825 23.7585L26.53 24.72C24.4319 27.5352 21.1834 29.1831 17.7318 29.1831C11.6407 29.1831 6.7002 24.1707 6.7002 17.9905C6.7002 11.8794 11.6407 6.8667 17.7318 6.8667C21.1834 6.8667 24.4319 8.51465 26.53 11.3301L25.5825 12.2913ZM28.0866 7.82788L27.139 8.78931C27.4775 9.13257 27.7482 9.47583 28.0189 9.81909L28.9664 8.85791L28.9637 8.85449L28.9613 8.85132L28.9588 8.84814C28.6906 8.5083 28.4218 8.16797 28.0866 7.82788ZM17.6641 32.6851C10.0164 32.6851 3.72232 26.7112 3.24857 18.9519H4.60214C5.0759 25.8872 10.7609 31.3118 17.6641 31.3118C20.7096 31.3118 23.6198 30.2817 25.9886 28.2905L26.936 29.2517C24.3643 31.4492 21.048 32.6851 17.6641 32.6851ZM27.139 27.2605L28.0866 28.2217C28.425 27.8784 28.6956 27.5352 28.9664 27.1917L28.0189 26.2305C27.7482 26.5737 27.4775 26.917 27.139 27.2605Z" fill="#ffffff"/>
</svg>
