<svg width="222" height="32" viewBox="0 0 222 32" fill="none" xmlns="http://www.w3.org/2000/svg">
<path d="M0 0V24.2508H11.2037V23.0054H1.24486V1.24541H22.9953V23.0054H12.7425V24.2508H24.2402V0H0Z" transform="translate(3.97662 3.97827)" fill="white"/>
<path d="M0 0H1.26215V1.2627H0V0Z" transform="translate(22.7878 8.16431)" fill="white"/>
<path d="M14.6271 2.71568V10.24V14.6335H1.24486V1.24541H4.16682H13.1575V0H0V15.8962H15.8893V2.71568H14.6271Z" transform="translate(8.16074 8.16431)" fill="white"/>
<path d="M0 0V15.187H1.26215V1.2627H30.7238V30.7373H1.26215V16.7265H0V32H31.986V0H0Z" fill="white"/>
<path fill-rule="evenodd" clip-rule="evenodd" d="M1.27945 2.05835C1.98831 2.05835 2.43784 1.67773 2.43784 1.03784C2.43784 0.397949 1.98831 0 1.27945 0H0V3.30371H0.53598V2.05835H1.27945ZM1.19299 0.467041C1.67709 0.467041 1.88458 0.657227 1.88458 1.03784C1.88458 1.41846 1.67709 1.60864 1.19299 1.60864H0.53598V0.467041H1.19299Z" transform="translate(129.465 24.5967)" fill="white"/>
<path fill-rule="evenodd" clip-rule="evenodd" d="M1.55606 3.4248C2.50702 3.4248 3.11215 2.76758 3.11215 1.7124C3.11215 0.657227 2.52429 0.017334 1.55606 0C0.605133 0 0 0.657227 0 1.7124C0 2.76758 0.605133 3.4248 1.55606 3.4248ZM1.55609 2.95776C0.933655 2.95776 0.553284 2.50806 0.553284 1.7124C0.553284 0.934082 0.933655 0.467041 1.55609 0.467041C2.17853 0.467041 2.5589 0.916748 2.5589 1.7124C2.5589 2.50806 2.17853 2.95776 1.55609 2.95776Z" transform="translate(133.788 24.5449)" fill="white"/>
<path d="M1.60794 3.30378H0.968224L0 0H0.58785L1.31402 2.88865L2.04019 0H2.59346L3.31963 2.88865L4.04579 0H4.59907L3.63084 3.30378H2.99112L2.47243 1.31459L2.29953 0.553514L2.12664 1.31459L1.60794 3.30378Z" transform="translate(138.664 24.614)" fill="white"/>
<path d="M2.47243 2.83676V3.30378H0V0H2.40327V0.467027H0.535981V1.41838H1.98832V1.86811H0.535981V2.85405H2.47243V2.83676Z" transform="translate(145.234 24.614)" fill="white"/>
<path fill-rule="evenodd" clip-rule="evenodd" d="M0.53598 1.97192H1.24487L2.07477 3.30371H2.6972L1.79813 1.91992C2.24765 1.78174 2.50702 1.47021 2.50702 0.98584C2.50702 0.363281 2.05746 0 1.3486 0H0V3.30371H0.53598V1.97192ZM1.31403 1.52222H0.53598V0.449707H1.31403C1.74625 0.449707 1.95374 0.622559 1.95374 0.98584C1.95374 1.34912 1.74625 1.52222 1.31403 1.52222Z" transform="translate(149.781 24.614)" fill="white"/>
<path d="M2.47243 2.83676V3.30378H0V0H2.40327V0.467027H0.535981V1.41838H1.98832V1.86811H0.535981V2.85405H2.47243V2.83676Z" transform="translate(154.501 24.614)" fill="white"/>
<path fill-rule="evenodd" clip-rule="evenodd" d="M1.17569 3.3042C2.21307 3.3042 2.81824 2.69873 2.81824 1.64355C2.81824 0.588379 2.1958 -0.0168457 1.17569 0.000244141H0V3.3042H1.17569ZM1.15839 0.450195C1.86728 0.450195 2.24765 0.882568 2.24765 1.6438C2.24765 2.40479 1.86728 2.83716 1.15839 2.85449H0.518677V0.450195H1.15839Z" transform="translate(159.048 24.6138)" fill="white"/>
<path fill-rule="evenodd" clip-rule="evenodd" d="M0.0173035 0H1.31403C2.10934 0 2.45514 0.345947 2.45514 0.916748C2.45514 1.2627 2.24765 1.57397 1.86728 1.64331C2.29953 1.7124 2.5416 2.02368 2.5416 2.4043C2.5416 2.9751 2.10934 3.32104 1.3313 3.32104H0V0H0.0173035ZM1.29675 1.43579C1.7117 1.43579 1.93646 1.28003 1.93646 0.951416C1.93646 0.622803 1.72897 0.467041 1.29675 0.467041H0.553284V1.43579H1.29675ZM2.00562 2.36987C2.00562 2.69849 1.78085 2.87134 1.36588 2.87134V2.854H0.53598V1.86816H1.36588C1.79813 1.86816 2.00562 2.04102 2.00562 2.36987Z" transform="translate(166.967 24.5967)" fill="white"/>
<path d="M1.71168 2.04108V3.30378H1.1757V2.04108L0 0H0.60514L1.19299 1.05514L1.45234 1.55676L1.71168 1.05514L2.29953 0H2.90467L1.71168 2.04108Z" transform="translate(171.151 24.5967)" fill="white"/>
<path d="M1.55607 3.42486C0.60514 3.42486 0 2.76757 0 1.71243C0 0.657297 0.60514 0 1.55607 0C2.21308 0 2.67991 0.276757 2.88738 0.812973L2.38598 1.03784C2.24766 0.64 2.00561 0.467027 1.59065 0.467027C0.968224 0.467027 0.570561 0.916757 0.570561 1.71243C0.570561 2.49081 0.950935 2.95784 1.57336 2.95784C1.98832 2.95784 2.29953 2.75027 2.42056 2.31784L2.93925 2.49081C2.73178 3.09622 2.21308 3.42486 1.55607 3.42486Z" transform="translate(178.534 24.5449)" fill="white"/>
<path fill-rule="evenodd" clip-rule="evenodd" d="M0.53598 1.97192H1.24487L2.07477 3.30371H2.6972L1.79813 1.91992C2.24765 1.78174 2.50702 1.47021 2.50702 0.98584C2.50702 0.363281 2.05746 0 1.3486 0H0V3.30371H0.53598V1.97192ZM1.29672 1.52222H0.518677V0.449707H1.29672C1.72894 0.449707 1.93643 0.622559 1.93643 0.98584C1.93643 1.34912 1.72894 1.52222 1.29672 1.52222Z" transform="translate(183.513 24.614)" fill="white"/>
<path d="M1.71168 2.04108V3.30378H1.1757V2.04108L0 0H0.60514L1.19299 1.05514L1.45234 1.55676L1.71168 1.05514L2.29953 0H2.90467L1.71168 2.04108Z" transform="translate(187.663 24.5967)" fill="white"/>
<path fill-rule="evenodd" clip-rule="evenodd" d="M1.27945 2.05835C1.98831 2.05835 2.43784 1.67773 2.43784 1.03784C2.43784 0.397949 1.98831 0 1.27945 0H0V3.30371H0.53598V2.05835H1.27945ZM1.19299 0.467041C1.67709 0.467041 1.88458 0.657227 1.88458 1.03784C1.88458 1.41846 1.67709 1.60864 1.19299 1.60864H0.53598V0.467041H1.19299Z" transform="translate(192.435 24.5967)" fill="white"/>
<path d="M2.81822 0.467027H1.6771V3.32108H1.14112V0.467027H0V0H2.80093V0.467027H2.81822Z" transform="translate(196.567 24.5967)" fill="white"/>
<path d="M2.47243 2.83676V3.30378H0V0H2.40327V0.467027H0.535981V1.41838H1.98832V1.86811H0.535981V2.85405H2.47243V2.83676Z" transform="translate(201.373 24.614)" fill="white"/>
<path fill-rule="evenodd" clip-rule="evenodd" d="M0.53598 1.97192H1.24487L2.07477 3.30371H2.6972L1.79813 1.91992C2.24765 1.78174 2.50702 1.47021 2.50702 0.98584C2.50702 0.363281 2.05746 0 1.3486 0H0V3.30371H0.53598V1.97192ZM1.31403 1.52222H0.53598V0.449707H1.31403C1.74625 0.449707 1.95374 0.622559 1.95374 0.98584C1.95374 1.34912 1.74625 1.52222 1.31403 1.52222Z" transform="translate(205.921 24.614)" fill="white"/>
<path d="M0.535981 3.30378H0V0H0.535981V3.30378Z" transform="translate(210.641 24.614)" fill="white"/>
<path d="M2.6972 2.04108C2.6972 2.92324 2.21308 3.35568 1.3486 3.35568C0.484112 3.35568 0 2.90595 0 2.04108V0H0.535981V1.97189C0.535981 2.59459 0.795327 2.88865 1.3486 2.88865C1.90187 2.88865 2.16122 2.59459 2.16122 1.97189V0H2.6972V2.04108Z" transform="translate(213.476 24.5967)" fill="white"/>
<path d="M3.3715 3.30378H2.88738V1.38378L2.92196 0.467027L1.91916 3.30378H1.46963L0.466822 0.467027L0.501402 1.38378V3.30378H0V0H0.795327L1.46963 1.92L1.69439 2.71568H1.71168L1.95374 1.92L2.61075 0H3.38879V3.30378H3.3715Z" transform="translate(218.49 24.614)" fill="white"/>
<path d="M5.93037 4.86054H1.02009V0H0V10.9838H1.02009V5.79459H5.93037V10.9838H6.93318V0H5.93037V4.86054Z" transform="translate(146.824 8.87354)" fill="white"/>
<path fill-rule="evenodd" clip-rule="evenodd" d="M3.57898 0H4.5126L4.52991 0.0690918L8.05701 11.001H6.98505L6.03412 7.99146H2.04019L1.08926 11.001H0L3.57898 0ZM2.35141 7.00537H5.7229L4.04581 1.67773L2.35141 7.00537Z" transform="translate(163.405 8.87354)" fill="white"/>
<path d="M5.84392 8.85622L1.03738 0.0345946L1.02009 0H0V10.9838H1.05467V2.11027L5.86122 10.9492L5.8785 10.9838H6.8986V0H5.84392V8.85622Z" transform="translate(180.937 8.87354)" fill="white"/>
<path d="M1.05467 10.0497V5.79459H5.82664V4.86054H1.05467V0.951351H6.53551V0H0V10.9838H6.5528V10.0497H1.05467Z" transform="translate(215.309 8.87354)" fill="white"/>
<path d="M7.20981 11.1395H5.77477L1.45234 2.81946L1.43505 11.1395H0V0H1.43505L5.75748 8.32L5.77477 0H7.20981V11.1395Z" transform="translate(64.1967 8.80444)" fill="white"/>
<path d="M6.25888 8.45838C6.25888 8.11243 6.18972 7.83568 6.03411 7.59351C5.8785 7.35135 5.67103 7.16108 5.42897 7.00541C5.18692 6.84973 4.91028 6.71135 4.61635 6.60757C4.32243 6.50378 4.04579 6.4 3.76916 6.31351C3.3715 6.19243 2.97383 6.03676 2.57617 5.84649C2.1785 5.67351 1.79813 5.44865 1.46963 5.18919C1.14112 4.92973 0.864486 4.61838 0.657009 4.27243C0.449533 3.92649 0.345794 3.49405 0.345794 3.02703C0.345794 2.5427 0.449533 2.12757 0.657009 1.74703C0.864486 1.36649 1.14112 1.05514 1.48692 0.795676C1.83271 0.536216 2.21308 0.345946 2.64533 0.207568C3.07757 0.0691892 3.50981 0 3.95935 0C4.44346 0 4.91028 0.0864865 5.35981 0.242162C5.80935 0.397838 6.20701 0.622703 6.5528 0.916757C6.8986 1.21081 7.17523 1.55676 7.38271 1.97189C7.59019 2.38703 7.69393 2.85405 7.71122 3.35568H6.25888C6.2243 3.02703 6.13785 2.75027 6.01682 2.47351C5.89579 2.21405 5.74019 1.98919 5.55 1.79892C5.35981 1.60865 5.11776 1.47027 4.85841 1.36649C4.59907 1.2627 4.28785 1.21081 3.95935 1.21081C3.68271 1.21081 3.42336 1.24541 3.16402 1.33189C2.90467 1.40108 2.67991 1.52216 2.47243 1.67784C2.26495 1.83351 2.10935 2.02378 1.98832 2.24865C1.86729 2.47351 1.81542 2.73297 1.81542 3.02703C1.81542 3.35568 1.90187 3.61513 2.05748 3.84C2.21308 4.06486 2.42056 4.25514 2.66262 4.41081C2.90467 4.56649 3.16402 4.68757 3.45794 4.79135C3.73458 4.89513 4.01122 4.98162 4.25327 5.05081C4.52991 5.1373 4.80654 5.24108 5.08318 5.34486C5.35981 5.44865 5.63645 5.58703 5.89579 5.72541C6.15514 5.86378 6.3972 6.03676 6.62196 6.20973C6.84673 6.3827 7.03692 6.59027 7.20981 6.81514C7.38271 7.04 7.50374 7.29946 7.60748 7.55892C7.69393 7.83568 7.74579 8.12973 7.74579 8.45838C7.74579 8.96 7.64206 9.39243 7.41729 9.77297C7.19252 10.1535 6.91589 10.4476 6.5528 10.707C6.20701 10.9492 5.80935 11.1395 5.35981 11.2605C4.91028 11.3816 4.47804 11.4508 4.0285 11.4508C3.5271 11.4508 3.04299 11.3816 2.57617 11.2259C2.10935 11.0703 1.6771 10.8454 1.29673 10.5686C0.916355 10.2746 0.62243 9.92865 0.380374 9.51351C0.138318 9.09838 0.0172897 8.63135 0 8.09513H1.45234C1.50421 8.44108 1.59065 8.75243 1.72897 9.01189C1.86729 9.28865 2.05748 9.51351 2.28224 9.68649C2.50701 9.87676 2.76636 10.0151 3.06028 10.1016C3.35421 10.1881 3.66542 10.24 4.0285 10.24C4.30514 10.24 4.58178 10.2054 4.84112 10.1362C5.10047 10.067 5.34252 9.96324 5.55 9.80757C5.75748 9.66919 5.93037 9.47892 6.06869 9.25405C6.18972 9.02919 6.25888 8.75243 6.25888 8.45838Z" transform="translate(80.9332 8.66602)" fill="white"/>
<path fill-rule="evenodd" clip-rule="evenodd" d="M2.31683 8.25073H6.03412L6.91589 11.1394H8.31635L4.78925 0H3.59625L0 11.1394H1.41776L2.31683 8.25073ZM5.65375 7.00537H2.6972L4.18411 2.16211L5.65375 7.00537Z" transform="translate(111.986 8.80444)" fill="white"/>
<path d="M1.45234 4.92973V2.07568V0.0172973L0.0172897 0L0 1.22811V4.92973H1.45234Z" transform="translate(51.8692 8.78711)" fill="white"/>
<path d="M0 0V2.99243V4.89513H1.45234V0H0Z" transform="translate(51.8692 14.9795)" fill="white"/>
<path d="M3.45794 4.92973H4.82383V1.21081H8.26449V0H0V1.21081H3.45794V4.92973Z" transform="translate(96.2692 8.78711)" fill="white"/>
<path d="M0 0H1.38318V4.96432H0V0Z" transform="translate(99.7271 14.9795)" fill="white"/>
<path d="M1.08925 5.1373V4.87784C1.08925 4.58378 1.10654 4.28973 1.15841 3.97838C1.19299 3.66703 1.26215 3.37297 1.3486 3.07892C1.43505 2.78486 1.55607 2.50811 1.69439 2.24865C1.83271 1.98919 2.00561 1.76432 2.19579 1.57405C2.38598 1.38378 2.62804 1.22811 2.88738 1.10703C3.14673 0.985946 3.45794 0.934054 3.78645 0.934054C4.18411 0.934054 4.52991 1.00324 4.82383 1.14162C5.11776 1.28 5.3771 1.47027 5.58458 1.69514C5.79206 1.9373 5.96495 2.21405 6.08598 2.52541C6.20701 2.83676 6.31075 3.2 6.36262 3.56324L6.37991 3.63243H7.43458L7.41729 3.52865C7.36542 3.02703 7.24439 2.56 7.05421 2.12757C6.86402 1.69514 6.62196 1.31459 6.31075 1.00324C5.99953 0.691892 5.63645 0.432432 5.20421 0.259459C4.78925 0.0864865 4.30514 0 3.76916 0C3.33692 0 2.92196 0.0691892 2.57617 0.207568C2.21308 0.345946 1.90187 0.536216 1.62523 0.761081C1.3486 1.00324 1.10654 1.28 0.899065 1.59135C0.691589 1.9027 0.535981 2.24865 0.397664 2.59459C0.259346 2.95784 0.172897 3.32108 0.103738 3.71892C0.0345794 4.09946 0 4.4973 0 4.87784V5.1373H1.08925Z" transform="translate(129.517 8.70068)" fill="white"/>
<path d="M6.37991 1.34919L6.36262 1.41838C6.31075 1.78162 6.2243 2.12757 6.08598 2.45622C5.96495 2.76757 5.79206 3.04432 5.58458 3.28649C5.3771 3.51135 5.11776 3.70162 4.82383 3.84C4.52991 3.97838 4.16682 4.03027 3.76916 4.03027C3.42336 4.03027 3.12944 3.97838 2.87009 3.8573C2.61075 3.73622 2.36869 3.58054 2.1785 3.39027C1.98832 3.2 1.81542 2.97514 1.6771 2.71568C1.53878 2.45622 1.41776 2.17946 1.33131 1.88541C1.24486 1.59135 1.1757 1.2973 1.14112 0.985946C1.10654 0.674595 1.07196 0.380541 1.07196 0.0864865V0H0V0.103784C0 0.484324 0.0345794 0.864865 0.103738 1.24541C0.172897 1.62595 0.259346 2.00649 0.397664 2.36973C0.535981 2.73297 0.691589 3.06162 0.899065 3.37297C1.10654 3.68432 1.3486 3.96108 1.62523 4.20324C1.90187 4.42811 2.23037 4.61838 2.57617 4.75676C2.93925 4.89513 3.33692 4.96432 3.76916 4.96432C4.28785 4.96432 4.77196 4.87784 5.20421 4.70486C5.61916 4.53189 5.99953 4.27243 6.31075 3.96108C6.62196 3.64973 6.86402 3.26919 7.05421 2.83676C7.24439 2.40432 7.36542 1.95459 7.41729 1.45297L7.43458 1.34919H6.37991Z" transform="translate(129.517 15.0486)" fill="white"/>
<path d="M1.08925 5.1373V4.86054C1.08925 4.56649 1.12383 4.27243 1.15841 3.96108C1.21028 3.64973 1.27944 3.35568 1.36589 3.06162C1.45234 2.76757 1.59065 2.49081 1.72897 2.24865C1.86729 1.98919 2.05748 1.78162 2.24766 1.59135C2.45514 1.40108 2.67991 1.24541 2.95654 1.14162C3.21589 1.03784 3.5271 0.968649 3.85561 0.968649C4.21869 0.968649 4.5472 1.02054 4.82383 1.14162C5.10047 1.2627 5.35981 1.41838 5.56729 1.62595C5.77477 1.83351 5.94766 2.07568 6.08598 2.36973C6.2243 2.66378 6.32804 2.97514 6.3972 3.32108L6.41449 3.39027H7.45187L7.43458 3.28649C7.38271 2.80216 7.26168 2.35243 7.0715 1.95459C6.88131 1.55676 6.62196 1.21081 6.31075 0.916757C5.99953 0.622703 5.61916 0.397838 5.20421 0.242162C4.78925 0.0864865 4.32243 0 3.83832 0C3.40608 0 2.99112 0.0691892 2.64533 0.207568C2.28224 0.345946 1.97103 0.536216 1.6771 0.761081C1.40047 0.985946 1.14112 1.2627 0.933645 1.57405C0.726168 1.88541 0.553271 2.21405 0.414953 2.5773C0.276635 2.94054 0.172897 3.30378 0.103738 3.70162C0.0345794 4.08216 0 4.48 0 4.86054V5.12H1.08925V5.1373Z" transform="translate(197.621 8.70068)" fill="white"/>
<path d="M7.41729 0H3.83832V0.951351H6.3972V3.63243C6.25888 3.80541 6.10327 3.94378 5.93037 4.06486C5.74019 4.18595 5.53271 4.27243 5.32523 4.34162C5.10047 4.41081 4.8757 4.4627 4.65093 4.48C4.42617 4.51459 4.18411 4.51459 3.97664 4.51459C3.63084 4.51459 3.31963 4.44541 3.04299 4.34162C2.76636 4.23784 2.5243 4.08216 2.31682 3.87459C2.10935 3.68432 1.91916 3.45946 1.76355 3.2C1.60794 2.94054 1.48692 2.66378 1.38318 2.36973C1.27944 2.07568 1.21028 1.76432 1.15841 1.45297C1.10654 1.14162 1.07196 0.83027 1.07196 0.536216V0.501622H0V0.536216C0 0.934054 0.0518692 1.31459 0.121028 1.71243C0.190187 2.11027 0.311215 2.49081 0.449533 2.85405C0.58785 3.2173 0.778037 3.56324 0.985514 3.87459C1.21028 4.18595 1.45234 4.4627 1.74626 4.70486C2.04019 4.94703 2.36869 5.12 2.73178 5.25838C3.09486 5.39676 3.50981 5.46595 3.94206 5.46595C4.27056 5.46595 4.59907 5.43135 4.92757 5.37946C5.25607 5.32757 5.56729 5.24108 5.86122 5.12C6.15514 4.99892 6.43178 4.84324 6.70841 4.65297C6.96776 4.4627 7.20981 4.23784 7.43458 3.97838L7.45187 3.96108L7.41729 0Z" transform="translate(197.673 14.5471)" fill="white"/>
</svg>
