<svg width="31" height="29" viewBox="0 0 31 29" xmlns="http://www.w3.org/2000/svg">
<path style="fill:#6D7589;" fill-rule="evenodd" clip-rule="evenodd" d="M29 0H15C13.8955 0 13 0.895508 13 2V12C13 13.1045 13.8955 14 15 14H29C30.1045 14 31 13.1045 31 12V2C31 0.895508 30.1045 0 29 0ZM19 15H2C0.895508 15 0 15.8955 0 17V27C0 28.1045 0.895508 29 2 29H19C20.1045 29 21 28.1045 21 27V17C21 15.8955 20.1045 15 19 15ZM2 0H10C11.1045 0 12 0.895508 12 2V12C12 13.1045 11.1045 14 10 14H2C0.895508 14 0 13.1045 0 12V2C0 0.895508 0.895508 0 2 0ZM29 15H24C22.8955 15 22 15.8955 22 17V27C22 28.1045 22.8955 29 24 29H29C30.1045 29 31 28.1045 31 27V17C31 15.8955 30.1045 15 29 15ZM15 2V12H29V2H15ZM2 27V17H19V27H2ZM2 2V12H10V2H2ZM24 27V17H29V27H24Z"/>
</svg>
