<svg width="18" height="18" viewBox="0 0 18 18" fill="none" xmlns="http://www.w3.org/2000/svg">
<path opacity="0.01" fill-rule="evenodd" clip-rule="evenodd" d="M0 0H18V18H0V0Z" fill="#FF0000"/>
<path opacity="0.6" fill-rule="evenodd" clip-rule="evenodd" d="M0 0V1.56824C0 2.35901 0.654785 3 1.4624 3H9.0376C9.84521 3 10.5 2.35901 10.5 1.56824V0H9V1.05005C9 1.29858 8.79004 1.5 8.53125 1.5H1.96875C1.70996 1.5 1.5 1.29858 1.5 1.05005V0H0Z" transform="translate(3.75 12)" fill="black"/>
<path opacity="0.6" fill-rule="evenodd" clip-rule="evenodd" d="M2.70168 8.36009C2.70168 8.77427 3.03737 9.11009 3.45168 9.11009C3.86598 9.11009 4.20168 8.77427 4.20168 8.36009V2.25328L5.69069 3.70347C5.93922 3.94554 6.3362 3.94297 6.58131 3.69761C6.83131 3.44773 6.82863 3.04173 6.57545 2.79515L4.04079 0.326518C3.94752 0.235576 3.83327 0.179179 3.71388 0.157207C3.67262 0.141826 3.62965 0.129863 3.58522 0.121928C3.33473 -0.0615432 2.98048 -0.0377395 2.75709 0.191875L0.179702 2.84007C-0.062241 3.0886 -0.0595555 3.48533 0.185806 3.73057C0.435806 3.98057 0.841812 3.97789 1.08839 3.72447L2.70168 2.06687V8.36009Z" transform="translate(5.54834 11.6792) scale(1 -1)" fill="black"/>
</svg>
