<svg width="16" height="17" viewBox="0 0 16 17" xmlns="http://www.w3.org/2000/svg">
<path style="fill:#6D7589;" fill-rule="evenodd" clip-rule="evenodd" d="M6.66675 0.833252C6.66675 0.373047 7.03979 0 7.5 0C7.96021 0 8.3335 0.373047 8.3335 0.833252V7.5C8.3335 7.96021 7.96021 8.33325 7.5 8.33325C7.03979 8.33325 6.66675 7.96021 6.66675 7.5V0.833252ZM7.39819 14.147C4.07812 14.1392 1.41187 11.4966 1.41187 8.22974C1.41187 6.09888 2.54199 4.21924 4.24634 3.17285L2.76294 2.5C1.07495 3.85059 0 5.92285 0 8.22974C0 12.2539 3.29858 15.5264 7.35132 15.5586C7.36206 15.5586 7.3728 15.5588 7.38354 15.5588C7.38843 15.5588 7.39307 15.5588 7.39795 15.5588C7.40283 15.5588 7.40698 15.5588 7.41187 15.5588C7.42261 15.5588 7.43335 15.5586 7.44409 15.5586C11.4968 15.5264 14.7954 12.2539 14.7954 8.22974C14.7954 5.92285 13.7205 3.85059 12.0325 2.5L10.5491 3.17285C12.2534 4.21924 13.3835 6.09888 13.3835 8.22974C13.3835 11.4966 10.7183 14.1392 7.39819 14.147Z" transform="translate(0.5 0.5)"/>
</svg>
