<svg width="26" height="26" viewBox="0 0 26 26" xmlns="http://www.w3.org/2000/svg">
  <path style="fill:#6D7589;" fill-rule="evenodd" clip-rule="evenodd" d="M3 1C3 0.447754 3.44775 0 4 0C4.55225 0 5 0.447754 5 1V3.12598C6.72534 3.57007 8 5.13623 8 7C8 8.86377 6.72534 10.4299 5 10.874V25C5 25.5522 4.55225 26 4 26C3.44775 26 3 25.5522 3 25V10.874C1.27466 10.4299 0 8.86377 0 7C0 5.13623 1.27466 3.57007 3 3.12598V1ZM6 7C6 8.10461 5.10449 9 4 9C2.89551 9 2 8.10461 2 7C2 5.89539 2.89551 5 4 5C5.10449 5 6 5.89539 6 7ZM21 1C21 0.447754 21.4478 0 22 0C22.5522 0 23 0.447754 23 1V3.12598C24.7253 3.57007 26 5.13623 26 7C26 8.86377 24.7253 10.4299 23 10.874V25C23 25.5522 22.5522 26 22 26C21.4478 26 21 25.5522 21 25V10.874C19.2747 10.4299 18 8.86377 18 7C18 5.13623 19.2747 3.57007 21 3.12598V1ZM22 9C23.1045 9 24 8.10461 24 7C24 5.89539 23.1045 5 22 5C20.8955 5 20 5.89539 20 7C20 8.10461 20.8955 9 22 9ZM13 26C12.4478 26 12 25.5522 12 25V22.874C10.2747 22.4299 9 20.8638 9 19C9 17.1362 10.2747 15.5701 12 15.126V1C12 0.447754 12.4478 0 13 0C13.5522 0 14 0.447754 14 1V15.126C15.7253 15.5701 17 17.1362 17 19C17 20.8638 15.7253 22.4299 14 22.874V25C14 25.5522 13.5522 26 13 26ZM15 19C15 17.8954 14.1045 17 13 17C11.8955 17 11 17.8954 11 19C11 20.1046 11.8955 21 13 21C14.1045 21 15 20.1046 15 19Z"/>
</svg>
